<?xml version="1.0" encoding="UTF-8"?>
<svg width="190px" height="137px" viewBox="0 0 190 137" version="1.1" xmlns="http://www.w3.org/2000/svg" xmlns:xlink="http://www.w3.org/1999/xlink">
    <!-- Generator: Sketch 51.3 (57544) - http://www.bohemiancoding.com/sketch -->
    <title>provider-gp</title>
    <desc>Created with Sketch.</desc>
    <defs></defs>
    <g id="final" stroke="none" stroke-width="1" fill="none" fill-rule="evenodd">
        <g id="Actional-MD---Final-Provider" transform="translate(-151.000000, -350.000000)" fill-rule="nonzero">
            <g id="Group-20" transform="translate(151.000000, 350.000000)">
                <g id="provider-gp">
                    <g id="bg" transform="translate(0.000000, 3.372781)" fill="#00B2F6" opacity="0.1">
                        <path d="M0.490771157,58.616048 L18.0289277,58.616048 L18.0289277,82.5204051 L1.77472527,82.5204051 C1.73152359,82.7657907 1.69004997,83.0129043 1.64512022,83.260018 L18.0289277,83.260018 L18.0289277,102.538338 C17.9995506,102.529698 17.9736296,102.51933 17.9459805,102.508961 C17.4828584,102.325786 17.0231925,102.132243 16.5635265,101.924875 L16.2697551,101.791813 C15.8089371,101.574077 15.3481191,101.343668 14.8873011,101.100586 C14.7265908,101.015911 14.5658806,100.92778 14.4068984,100.83792 C11.8486376,99.4048698 9.52459236,97.5889909 7.51536536,95.4532619 C7.45661106,95.3962357 7.4013129,95.3357533 7.34255861,95.2804552 C7.06261168,94.9763153 6.78784896,94.6687193 6.52172657,94.354211 L6.2279551,94.0085975 C5.91344683,93.6232385 5.60930695,93.227511 5.31380742,92.8265994 C5.27060573,92.7678451 5.22913211,92.7090908 5.18420236,92.6537927 C3.98241287,90.9874658 2.98454639,89.1831839 2.21192634,87.2795029 C2.1877334,87.2224766 2.16699659,87.1602662 2.14453171,87.1066961 C1.90721045,86.4961123 1.69696224,85.8797682 1.51378709,85.257664 C1.43429599,84.9967258 1.35826102,84.7392437 1.29259446,84.4679371 C1.26840151,84.388446 1.2476647,84.310683 1.22865596,84.23292 C0.247113646,80.4017944 0.131333126,76.4220551 0.131333126,72.4699648 C0.131333126,72.0085708 0.131333126,71.5454487 0.131333126,71.0875108 C0.131333126,69.4890484 0.150341868,67.8802176 0.177990948,66.2731149 C0.177990948,65.8566507 0.195271622,65.4419145 0.20391196,65.0237221 C0.228104904,63.9626887 0.262666253,62.9016553 0.307596007,61.8406219 C0.317964411,61.5451224 0.331788951,61.2513509 0.347341558,60.9575794 C0.347341558,60.7882288 0.355981895,60.6188782 0.37326257,60.4495276 C0.414736189,59.8343356 0.449297538,59.2243278 0.490771157,58.616048 Z" id="Shape"></path>
                        <path d="M18.0289277,32.0003531 L8.40877623,32.0003531 C9.97258334,29.5526793 11.68123,27.2006214 13.525584,24.9567502 C14.9546957,23.2010336 16.4632986,21.4902469 18.0289277,19.8416705 L18.0289277,32.0003531 Z" id="Shape"></path>
                        <path d="M18.0289277,32.739966 L18.0289277,57.8764352 L0.546069315,57.8764352 C0.546069315,57.8038563 0.558165787,57.7295494 0.56334999,57.6569706 C0.578902597,57.4582428 0.594455204,57.2595151 0.611735879,57.0625154 C0.630744621,56.8309543 0.65148143,56.5976652 0.673946307,56.3712884 C0.696411184,56.1449116 0.720604128,55.8684208 0.74652514,55.617851 C0.772446152,55.3672812 0.796639096,55.1132553 0.826016243,54.8626855 C0.855393389,54.6121157 0.881314401,54.361546 0.912419615,54.1127042 C0.94352483,53.8638625 0.971173909,53.6115647 1.00400719,53.362723 C1.0299282,53.1553549 1.05757728,52.9497148 1.08522636,52.7423467 C1.12497191,52.4503033 1.16644553,52.1565319 1.21137528,51.8662165 C1.21137528,51.8230149 1.22347176,51.7780851 1.23038403,51.7366115 C1.54578893,49.6113687 1.97554942,47.504677 2.51779428,45.4257091 C3.08539382,43.2448634 3.81019806,41.1079904 4.68651893,39.0318596 C5.61788715,36.8599802 6.70838345,34.7598506 7.94911029,32.7486063 L18.0289277,32.739966 Z" id="Shape"></path>
                        <path d="M22.2160352,58.61432 L22.2160352,82.5204051 L59.6753534,82.5204051 L59.6753534,58.61432 L22.2160352,58.61432 Z M22.2160352,83.2582899 L22.2160352,103.787731 C22.4303155,103.832661 22.6428678,103.875863 22.8536921,103.912152 C23.1405513,103.96745 23.4256824,104.017564 23.7177258,104.060766 C23.773024,104.069406 23.8300502,104.078047 23.8905325,104.083231 C24.004585,104.10224 24.1220936,104.117792 24.236146,104.133345 C24.5247333,104.17309 24.8115925,104.205924 25.1001798,104.231845 C25.2366971,104.245669 25.3749425,104.257766 25.5131879,104.268134 L25.8467049,104.294055 C26.028152,104.30788 26.207871,104.318248 26.3858619,104.323432 C26.4964583,104.323432 26.6070546,104.333801 26.721107,104.337257 L26.9837733,104.337257 C26.9837733,104.337257 27.2015098,104.337257 27.310378,104.337257 L27.7544914,104.337257 L27.9532191,104.337257 C28.1018329,104.337257 28.2504467,104.337257 28.3973325,104.323432 L28.4077009,104.323432 C28.5096568,104.323432 28.6133409,104.323432 28.7170249,104.309608 C28.7458004,104.311328 28.7746529,104.311328 28.8034283,104.309608 C28.8898317,104.309608 28.9762351,104.309608 29.0591823,104.297511 L29.1196647,104.297511 L29.6985673,104.252581 C29.8886547,104.235301 30.0804702,104.212836 30.2740137,104.192099 L30.6680131,104.145441 C32.2709297,103.920842 33.8560344,103.583611 35.4115583,103.13625 C38.9057106,102.16162 42.3238281,100.798175 45.8162524,99.7993516 C50.3316927,98.5119413 55.3206234,97.8794686 59.6839937,99.4537381 L59.6839937,83.2582899 L22.2160352,83.2582899 Z M59.6753534,32.0003531 L59.6753534,0.174534813 C55.5741959,0.130102112 51.4841631,0.609779386 47.5045743,1.60191853 C38.019212,3.98492355 29.5084798,9.1535733 22.2160352,15.754791 L22.2160352,31.998625 L24.0961726,31.998625 L24.0961726,32.7365098 L22.2160352,32.7365098 L22.2160352,57.8764352 L59.6753534,57.8764352 L59.6753534,32.7382379 L31.8154499,32.7382379 L31.8154499,32.0003531 L59.6753534,32.0003531 Z M107.789935,21.2500455 C105.44322,21.1670982 103.110329,20.4240292 101.000358,19.2765924 C96.9653209,17.0819468 93.7424751,13.6932065 90.1411826,10.8332549 C82.6586505,4.87660635 73.3789283,1.28222605 63.8590047,0.390543244 L63.8590047,32.0003531 L117.334052,32.0003531 L117.467113,31.8603796 L107.789935,21.2500455 Z M112.661358,20.3860117 L117.826551,26.054073 L117.826551,18.8998737 C116.096756,19.1141541 114.581241,19.623934 112.66827,20.3790995 L112.661358,20.3860117 Z M117.826551,108.88553 L117.826551,83.2582899 L106.82049,83.2582899 C106.791112,83.1494217 106.761735,83.0388253 106.727174,82.928229 C106.760007,83.0388253 106.787656,83.1494217 106.818762,83.2582899 L63.8659169,83.2582899 L63.8659169,101.791813 C64.2737409,102.094225 64.6763806,102.41219 65.0755642,102.735338 C65.505853,103.080952 65.9309576,103.445574 66.3577902,103.803284 L66.788079,104.159266 C66.993719,104.332073 67.2010871,104.504879 67.4101833,104.667318 C67.8249195,105.003715 68.2436878,105.335504 68.6664883,105.662684 C68.8755845,105.835491 69.0898649,105.991017 69.3024172,106.153456 C72.6768336,108.733409 76.2364655,111.061638 79.9524969,113.119296 C80.7854254,113.580113 81.6258422,114.029987 82.4737473,114.468916 C83.0388253,114.757503 83.6073595,115.044363 84.1776218,115.322582 C85.0347433,115.740774 85.898777,116.14399 86.769723,116.532229 C94.7994228,120.136703 103.290241,122.61009 111.999508,123.8817 C113.933791,124.167407 115.875563,124.392056 117.824823,124.555646 L117.824823,108.883802 L117.99763,108.883802 L117.826551,108.88553 Z M63.8659169,32.7382379 L63.8659169,57.8764352 L117.833464,57.8764352 L117.833464,32.7382379 L63.8659169,32.7382379 Z M63.8659169,58.61432 L63.8659169,82.5204051 L117.833464,82.5204051 L117.833464,58.61432 L63.8659169,58.61432 Z M122.022299,18.8687685 L122.022299,26.848984 L128.614876,19.6152937 C126.430599,19.2627679 124.233073,19.0110461 122.022299,18.8601282 L122.022299,18.8687685 Z M122.022299,58.6229603 L122.022299,82.5204051 L174.512348,82.5204051 L174.512348,58.61432 L122.022299,58.6229603 Z M174.320532,110.782948 L174.505436,83.2582899 L122.022299,83.2582899 L122.022299,124.830409 C125.403267,124.972443 128.789435,124.932063 132.166055,124.709444 L132.224809,124.709444 C133.837672,124.608064 135.443047,124.460602 137.040933,124.267059 L137.077223,124.267059 C145.601886,123.274937 153.937418,121.05077 161.823149,117.664113 L174.320532,110.782948 Z M184.633639,62.5508576 C184.436639,62.0860075 184.230999,61.6246135 184.021903,61.1684037 C183.63136,60.3043699 183.218352,59.4645291 182.793247,58.6246884 L178.697727,58.6246884 L178.697727,82.5204051 L189.052307,82.5204051 C189.047123,75.753293 187.334608,68.8410231 184.638823,62.5422173 L184.633639,62.5508576 Z M178.697727,83.2669302 L178.697727,106.941454 C181.614705,104.145441 184.078929,100.946788 185.853655,97.2901976 C187.987818,92.8870818 188.964176,88.1193437 189.043667,83.2634741 L178.697727,83.2669302 Z M178.697727,51.6571204 L178.697727,57.8781632 L182.409616,57.8781632 C181.286702,55.7366082 180.049345,53.6570397 178.702911,51.64848 L178.697727,51.6571204 Z M143.099538,23.5587436 C142.826503,23.4550595 142.553468,23.3496474 142.278706,23.2476915 C139.380886,22.1775479 136.419663,21.287623 133.411992,20.5830114 L123.323534,31.6547396 L123.12999,31.8603796 L123.259595,32.0020812 L159.165381,32.0020812 C154.164715,28.559853 148.773525,25.7227207 143.104722,23.5501033 L143.099538,23.5587436 Z M160.217774,32.7468782 L122.758456,32.7468782 L122.022299,33.4208246 L122.022299,57.8764352 L128.474903,57.8764352 L128.485271,57.8764352 L174.51926,57.8764352 L174.51926,46.0305328 C170.355007,40.9942163 165.548643,36.5253957 160.222958,32.7382379 L160.217774,32.7468782 Z" id="Shape"></path>
                        <path d="M18.0289277,45.4187969 L18.0289277,57.8764352 L0.546069315,57.8764352 C0.546069315,57.8038563 0.558165787,57.7295494 0.56334999,57.6569706 C0.578902597,57.4582428 0.594455204,57.2595151 0.611735879,57.0625154 C0.630744621,56.8309543 0.65148143,56.5976652 0.673946307,56.3712884 C0.696411184,56.1449116 0.720604128,55.8684208 0.74652514,55.617851 C0.772446152,55.3672812 0.796639096,55.1132553 0.826016243,54.8626855 C0.855393389,54.6121157 0.881314401,54.361546 0.912419615,54.1127042 C0.94352483,53.8638625 0.971173909,53.6115647 1.00400719,53.362723 C1.0299282,53.1553549 1.05757728,52.9497148 1.08522636,52.7423467 C1.12497191,52.4503033 1.16644553,52.1565319 1.21137528,51.8662165 C1.21137528,51.8230149 1.22347176,51.7780851 1.23038403,51.7366115 C1.54578893,49.6113687 1.97554942,47.504677 2.51779428,45.4257091 L18.0289277,45.4187969 Z" id="Shape"></path>
                        <path d="M0.490771157,58.616048 L18.0289277,58.616048 L18.0289277,82.5204051 L1.77472527,82.5204051 C1.73152359,82.7657907 1.69004997,83.0129043 1.64512022,83.260018 L18.0289277,83.260018 L18.0289277,102.538338 C17.9995506,102.529698 17.9736296,102.51933 17.9459805,102.508961 C17.4828584,102.325786 17.0231925,102.132243 16.5635265,101.924875 L16.2697551,101.791813 C15.8089371,101.574077 15.3481191,101.343668 14.8873011,101.100586 C14.7265908,101.015911 14.5658806,100.92778 14.4068984,100.83792 C11.8486376,99.4048698 9.52459236,97.5889909 7.51536536,95.4532619 C7.45661106,95.3962357 7.4013129,95.3357533 7.34255861,95.2804552 C7.06261168,94.9763153 6.78784896,94.6687193 6.52172657,94.354211 L6.2279551,94.0085975 C5.91344683,93.6232385 5.60930695,93.227511 5.31380742,92.8265994 C5.27060573,92.7678451 5.22913211,92.7090908 5.18420236,92.6537927 C3.98241287,90.9874658 2.98454639,89.1831839 2.21192634,87.2795029 C2.1877334,87.2224766 2.16699659,87.1602662 2.14453171,87.1066961 C1.90721045,86.4961123 1.69696224,85.8797682 1.51378709,85.257664 C1.43429599,84.9967258 1.35826102,84.7392437 1.29259446,84.4679371 C1.26840151,84.388446 1.2476647,84.310683 1.22865596,84.23292 C0.247113646,80.4017944 0.131333126,76.4220551 0.131333126,72.4699648 C0.131333126,72.0085708 0.131333126,71.5454487 0.131333126,71.0875108 C0.131333126,69.4890484 0.150341868,67.8802176 0.177990948,66.2731149 C0.177990948,65.8566507 0.195271622,65.4419145 0.20391196,65.0237221 C0.228104904,63.9626887 0.262666253,62.9016553 0.307596007,61.8406219 C0.317964411,61.5451224 0.331788951,61.2513509 0.347341558,60.9575794 C0.347341558,60.7882288 0.355981895,60.6188782 0.37326257,60.4495276 C0.414736189,59.8343356 0.449297538,59.2243278 0.490771157,58.616048 Z" id="Shape"></path>
                        <polygon id="Shape" points="35.4029179 36.3378024 35.4029179 57.8764352 22.2160352 57.8764352 22.2160352 36.3378024 24.0961726 36.3378024 24.0961726 29.0453578 31.8137218 29.0453578 31.8137218 36.3378024"></polygon>
                        <polygon id="Shape" points="22.2177632 58.61432 35.4029179 58.61432 35.4029179 82.518677 22.2177632 82.518677"></polygon>
                        <path d="M22.2160352,83.260018 L35.4029179,83.260018 L35.4029179,103.132794 C33.8473986,103.57976 32.2622811,103.916417 30.6593728,104.140257 L30.2653734,104.188643 C30.0718298,104.211108 29.8800143,104.230117 29.6899269,104.249125 C29.4998395,104.268134 29.3028398,104.281959 29.1110243,104.294055 L29.050542,104.294055 C28.9675947,104.294055 28.8777352,104.304423 28.796516,104.306151 L28.7083846,104.306151 C28.6047006,104.306151 28.5010165,104.31652 28.3973325,104.319976 C28.2504467,104.328616 28.103561,104.330344 27.9532191,104.332073 C27.8892806,104.332073 27.8287983,104.332073 27.7648598,104.332073 C27.616246,104.332073 27.4693602,104.332073 27.3207464,104.332073 L26.9941417,104.332073 C26.9060103,104.332073 26.8213349,104.332073 26.7297474,104.332073 L26.3962304,104.319976 C26.2234236,104.319976 26.0367923,104.300967 25.8570733,104.288871 L25.5252844,104.264678 L25.1122762,104.22666 C24.8219609,104.200739 24.5333736,104.167906 24.2482425,104.128161 L23.902629,104.079775 L23.7298223,104.055582 C23.441235,104.010652 23.1561039,103.962266 22.8657885,103.906968 C22.6532362,103.870678 22.442412,103.825749 22.2281317,103.782547 L22.2160352,83.260018 Z" id="Shape"></path>
                        <polygon id="Shape" points="106.960463 33.7940871 117.833464 33.7940871 117.833464 57.8747071 106.960463 57.8747071"></polygon>
                        <polygon id="Shape" points="117.835192 58.61432 117.835192 82.5204051 63.8659169 82.5204051 63.8659169 72.2090266 92.612319 72.2090266 92.612319 78.291824 106.960463 78.291824 106.960463 58.61432"></polygon>
                        <path d="M118.00627,108.890714 L117.833464,108.890714 L117.833464,124.572927 C115.886508,124.408184 113.945312,124.184111 112.009876,123.900708 C103.296323,122.625008 94.8019348,120.146363 86.769723,116.535685 C84.4506565,115.491932 82.1788238,114.35256 79.9542249,113.117567 C76.2382553,111.058895 72.6781216,108.730716 69.3024172,106.151728 C68.4545121,105.501974 67.6175514,104.837244 66.7915351,104.157538 C66.2195448,103.685775 65.6510106,103.201916 65.0755642,102.731882 C64.6763806,102.408733 64.2737409,102.090769 63.8659169,101.786629 L63.8659169,83.260018 L106.817034,83.260018 C106.787656,83.1494217 106.758279,83.0388253 106.727174,82.9299571 C106.760007,83.0388253 106.791112,83.1494217 106.82049,83.260018 L117.833464,83.260018 L117.833464,108.880346 C117.892218,108.882074 117.949244,108.887258 118.00627,108.890714 Z" id="Shape"></path>
                        <path d="M146.19105,32.0003531 L139.105974,32.0003531 L139.105974,29.7987952 L142.282162,29.7987952 L142.282162,23.2407792 C142.557501,23.3410071 142.831687,23.4441151 143.104722,23.5501033 L143.104722,29.7987952 L146.19105,29.7987952 L146.19105,32.0003531 Z" id="Shape"></path>
                        <path d="M163.260901,57.8764352 L128.478359,57.8764352 C128.478359,57.8764352 128.478359,57.8764352 128.490456,57.8850755 L128.474903,57.8764352 L122.022299,57.8764352 L122.022299,33.7958152 L123.850594,33.7958152 L123.850594,51.59491 L132.205801,51.59491 L132.205801,41.0536985 L139.107702,41.0536985 L139.107702,32.739966 L146.192778,32.739966 L146.192778,41.0606108 L153.09468,41.0606108 L153.09468,51.6018222 L163.260901,51.6018222 L163.260901,57.8764352 Z" id="Shape"></path>
                        <path d="M122.022299,58.61432 L122.022299,82.5204051 L163.260901,82.5204051 L163.260901,58.61432 L122.022299,58.61432 Z M174.455322,110.660256 L174.512348,91.7379169 L163.260901,91.7379169 L163.260901,83.2703864 L122.022299,83.2703864 L122.022299,124.830409 C125.403267,124.972443 128.789435,124.932063 132.166055,124.709444 L132.224809,124.709444 C133.837672,124.608064 135.443047,124.460602 137.040933,124.267059 L137.077223,124.267059 C145.601886,123.274937 153.937418,121.05077 161.823149,117.664113 L174.455322,110.660256 Z" id="Shape"></path>
                        <path d="M179.430428,83.260018 L189.050579,83.260018 C188.965904,88.1141595 187.991274,92.8818976 185.858839,97.2850134 C184.084114,100.943332 181.618161,104.141985 178.70464,106.93627 L178.70464,91.7292766 L179.430428,91.7292766 L179.430428,83.260018 Z" id="Shape"></path>
                        <path d="M189.055764,82.5204051 L179.430428,82.5204051 L179.430428,62.5422173 L184.638823,62.5422173 C187.334608,68.8410231 189.047123,75.753293 189.055764,82.5204051 Z" id="Shape"></path>
                        <polygon id="Shape" points="112.009876 40.4886204 117.835192 40.4886204 117.835192 48.0385471 112.009876 48.0385471"></polygon>
                        <polygon id="Shape" points="112.009876 56.1379993 117.835192 56.1379993 117.835192 57.8764352 112.009876 57.8764352"></polygon>
                        <polygon id="Shape" points="112.009876 58.61432 117.835192 58.61432 117.835192 63.6861979 112.009876 63.6861979"></polygon>
                        <polygon id="Shape" points="112.009876 71.7873782 117.835192 71.7873782 117.835192 79.3373049 112.009876 79.3373049"></polygon>
                        <polygon id="Shape" points="112.009876 87.436757 117.835192 87.436757 117.835192 94.9866837 112.009876 94.9866837"></polygon>
                        <path d="M117.833464,108.880346 C117.892218,108.880346 117.949244,108.880346 118.00627,108.890714 L117.833464,108.890714 L117.833464,110.644703 L112.009876,110.644703 L112.009876,103.086136 L117.833464,103.086136 L117.833464,108.880346 Z" id="Shape"></path>
                        <path d="M117.833464,118.732059 L117.833464,124.564286 C115.886508,124.399544 113.945312,124.175471 112.009876,123.892068 L112.009876,118.732059 L117.833464,118.732059 Z" id="Shape"></path>
                        <polygon id="Shape" points="63.8659169 81.9656955 88.8313074 81.9656955 88.8313074 82.5204051 63.8659169 82.5204051"></polygon>
                        <polygon id="Shape" points="63.8659169 83.2582899 88.8313074 83.2582899 88.8313074 85.3838129 63.8659169 85.3838129"></polygon>
                        <polygon id="Shape" points="63.8659169 92.3513808 88.8313074 92.3513808 88.8313074 95.7694983 63.8659169 95.7694983"></polygon>
                        <path d="M88.8295794,102.737066 L88.8295794,106.155184 L69.3024172,106.155184 C68.4545121,105.507734 67.6169754,104.843004 66.7898071,104.160994 C66.2178167,103.689231 65.6510106,103.205373 65.0738361,102.737066 L88.8295794,102.737066 Z" id="Shape"></path>
                        <path d="M88.8295794,113.121024 L88.8295794,116.535685 L86.7679949,116.535685 C84.4512325,115.49078 82.1799758,114.350832 79.9542249,113.115839 L88.8295794,113.121024 Z" id="Shape"></path>
                        <polygon id="Shape" points="132.167783 60.9316584 137.082407 60.9316584 137.082407 65.8462822 132.167783 65.8462822"></polygon>
                        <polygon id="Shape" points="25.7568454 38.0330366 30.6714692 38.0330366 30.6714692 42.9476604 25.7568454 42.9476604"></polygon>
                        <polygon id="Shape" points="25.7568454 49.4486502 30.6714692 49.4486502 30.6714692 54.363274 25.7568454 54.363274"></polygon>
                        <polygon id="Shape" points="25.7568454 60.8642638 30.6714692 60.8642638 30.6714692 65.7788876 25.7568454 65.7788876"></polygon>
                        <polygon id="Shape" points="25.7568454 72.2781493 30.6714692 72.2781493 30.6714692 77.1927731 25.7568454 77.1927731"></polygon>
                        <polygon id="Shape" points="25.7568454 83.6937629 30.6714692 83.6937629 30.6714692 88.6083867 25.7568454 88.6083867"></polygon>
                        <polygon id="Shape" points="25.7568454 95.1093765 30.6714692 95.1093765 30.6714692 100.024 25.7568454 100.024"></polygon>
                        <polygon id="Shape" points="150.929411 60.9316584 155.844035 60.9316584 155.844035 65.8462822 150.929411 65.8462822"></polygon>
                        <polygon id="Shape" points="132.167783 73.0540516 137.082407 73.0540516 137.082407 77.9686754 132.167783 77.9686754"></polygon>
                        <polygon id="Shape" points="150.929411 73.0540516 155.844035 73.0540516 155.844035 77.9686754 150.929411 77.9686754"></polygon>
                        <polygon id="Shape" points="132.167783 85.1747167 137.082407 85.1747167 137.082407 90.0893406 132.167783 90.0893406"></polygon>
                        <polygon id="Shape" points="150.929411 85.1747167 155.844035 85.1747167 155.844035 90.0893406 150.929411 90.0893406"></polygon>
                        <polygon id="Shape" points="132.167783 97.2971099 137.082407 97.2971099 137.082407 102.211734 132.167783 102.211734"></polygon>
                        <polygon id="Shape" points="150.929411 97.2971099 155.844035 97.2971099 155.844035 102.211734 150.929411 102.211734"></polygon>
                        <polygon id="Shape" points="132.167783 109.419503 137.082407 109.419503 137.082407 114.334127 132.167783 114.334127"></polygon>
                        <polygon id="Shape" points="150.929411 109.419503 155.844035 109.419503 155.844035 114.334127 150.929411 114.334127"></polygon>
                        <polygon id="Shape" points="132.167783 124.709444 132.167783 121.540168 137.080679 121.540168 137.080679 124.258418"></polygon>
                        <path d="M1.20964722,51.7331554 L1.20964722,54.5447211 L18.0289277,54.5447211 L18.0289277,51.7331554 L1.20964722,51.7331554 Z M2.88587265,54.3684582 L1.51378709,54.3684582 L1.51378709,51.9059621 L2.89624105,51.9059621 L2.88587265,54.3684582 Z M4.56037001,54.3684582 L3.17791605,54.3684582 L3.17791605,51.9059621 L4.56037001,51.9059621 L4.56037001,54.3684582 Z M6.23141124,54.3684582 L4.84895727,54.3684582 L4.84895727,51.9059621 L6.23141124,51.9059621 L6.23141124,54.3684582 Z M7.9059086,54.3684582 L6.5251827,54.3684582 L6.5251827,51.9059621 L7.90763667,51.9059621 L7.9059086,54.3684582 Z M9.57867789,54.3684582 L8.19622393,54.3684582 L8.19622393,51.9059621 L9.57867789,51.9059621 L9.57867789,54.3684582 Z M11.2531753,54.3684582 L9.87072129,54.3684582 L9.87072129,51.9059621 L11.2531753,51.9059621 L11.2531753,54.3684582 Z M12.9276726,54.3684582 L11.5452187,54.3684582 L11.5452187,51.9059621 L12.9276726,51.9059621 L12.9276726,54.3684582 Z M14.6004419,54.3684582 L13.217988,54.3684582 L13.217988,51.9059621 L14.6004419,51.9059621 L14.6004419,54.3684582 Z M16.2732112,54.3684582 L14.8907572,54.3684582 L14.8907572,51.9059621 L16.2732112,51.9059621 L16.2732112,54.3684582 Z M17.9459805,54.3684582 L16.5635265,54.3684582 L16.5635265,51.9059621 L17.9459805,51.9059621 L17.9459805,54.3684582 Z" id="Shape"></path>
                        <path d="M1.20964722,59.9138267 L1.20964722,62.7253924 L18.0289277,62.7253924 L18.0289277,59.9138267 L1.20964722,59.9138267 Z M2.88587265,62.5474015 L1.51378709,62.5474015 L1.51378709,60.0918176 L2.89624105,60.0918176 L2.88587265,62.5474015 Z M4.56037001,62.5474015 L3.17791605,62.5474015 L3.17791605,60.0918176 L4.56037001,60.0918176 L4.56037001,62.5474015 Z M6.23141124,62.5474015 L4.84895727,62.5474015 L4.84895727,60.0918176 L6.23141124,60.0918176 L6.23141124,62.5474015 Z M7.9059086,62.5474015 L6.5251827,62.5474015 L6.5251827,60.0918176 L7.90763667,60.0918176 L7.9059086,62.5474015 Z M9.57867789,62.5474015 L8.19622393,62.5474015 L8.19622393,60.0918176 L9.57867789,60.0918176 L9.57867789,62.5474015 Z M11.2531753,62.5474015 L9.87072129,62.5474015 L9.87072129,60.0918176 L11.2531753,60.0918176 L11.2531753,62.5474015 Z M12.9276726,62.5474015 L11.5452187,62.5474015 L11.5452187,60.0918176 L12.9276726,60.0918176 L12.9276726,62.5474015 Z M14.6004419,62.5474015 L13.217988,62.5474015 L13.217988,60.0918176 L14.6004419,60.0918176 L14.6004419,62.5474015 Z M16.2732112,62.5474015 L14.8907572,62.5474015 L14.8907572,60.0918176 L16.2732112,60.0918176 L16.2732112,62.5474015 Z M17.9459805,62.5474015 L16.5635265,62.5474015 L16.5635265,60.0918176 L17.9459805,60.0918176 L17.9459805,62.5474015 Z" id="Shape"></path>
                        <path d="M1.20964722,68.0979541 L1.20964722,70.9147041 L18.0289277,70.9147041 L18.0289277,68.0979541 L1.20964722,68.0979541 Z M2.88587265,70.7315289 L1.51378709,70.7315289 L1.51378709,68.274217 L2.89624105,68.274217 L2.88587265,70.7315289 Z M4.56037001,70.7315289 L3.17791605,70.7315289 L3.17791605,68.274217 L4.56037001,68.274217 L4.56037001,70.7315289 Z M6.23141124,70.7315289 L4.84895727,70.7315289 L4.84895727,68.274217 L6.23141124,68.274217 L6.23141124,70.7315289 Z M7.9059086,70.7315289 L6.5251827,70.7315289 L6.5251827,68.274217 L7.90763667,68.274217 L7.9059086,70.7315289 Z M9.57867789,70.7315289 L8.19622393,70.7315289 L8.19622393,68.274217 L9.57867789,68.274217 L9.57867789,70.7315289 Z M11.2531753,70.7315289 L9.87072129,70.7315289 L9.87072129,68.274217 L11.2531753,68.274217 L11.2531753,70.7315289 Z M12.9276726,70.7315289 L11.5452187,70.7315289 L11.5452187,68.274217 L12.9276726,68.274217 L12.9276726,70.7315289 Z M14.6004419,70.7315289 L13.217988,70.7315289 L13.217988,68.274217 L14.6004419,68.274217 L14.6004419,70.7315289 Z M16.2732112,70.7315289 L14.8907572,70.7315289 L14.8907572,68.274217 L16.2732112,68.274217 L16.2732112,70.7315289 Z M17.9459805,70.7315289 L16.5635265,70.7315289 L16.5635265,68.274217 L17.9459805,68.274217 L17.9459805,70.7315289 Z" id="Shape"></path>
                        <path d="M1.20964722,76.2820816 L1.20964722,79.0901912 L18.0289277,79.0901912 L18.0289277,76.2820816 L1.20964722,76.2820816 Z M2.88587265,78.9156564 L1.51378709,78.9156564 L1.51378709,76.4566164 L2.89624105,76.4566164 L2.88587265,78.9156564 Z M4.56037001,78.9156564 L3.17791605,78.9156564 L3.17791605,76.4566164 L4.56037001,76.4566164 L4.56037001,78.9156564 Z M6.23141124,78.9156564 L4.84895727,78.9156564 L4.84895727,76.4566164 L6.23141124,76.4566164 L6.23141124,78.9156564 Z M7.9059086,78.9156564 L6.5251827,78.9156564 L6.5251827,76.4566164 L7.90763667,76.4566164 L7.9059086,78.9156564 Z M9.57867789,78.9156564 L8.19622393,78.9156564 L8.19622393,76.4566164 L9.57867789,76.4566164 L9.57867789,78.9156564 Z M11.2531753,78.9156564 L9.87072129,78.9156564 L9.87072129,76.4566164 L11.2531753,76.4566164 L11.2531753,78.9156564 Z M12.9276726,78.9156564 L11.5452187,78.9156564 L11.5452187,76.4566164 L12.9276726,76.4566164 L12.9276726,78.9156564 Z M14.6004419,78.9156564 L13.217988,78.9156564 L13.217988,76.4566164 L14.6004419,76.4566164 L14.6004419,78.9156564 Z M16.2732112,78.9156564 L14.8907572,78.9156564 L14.8907572,76.4566164 L16.2732112,76.4566164 L16.2732112,78.9156564 Z M17.9459805,78.9156564 L16.5635265,78.9156564 L16.5635265,76.4566164 L17.9459805,76.4566164 L17.9459805,78.9156564 Z" id="Shape"></path>
                        <path d="M1.28222605,84.464481 C1.34962068,84.7288753 1.42565565,84.9932696 1.50514675,85.2542078 L1.50514675,84.6407439 L2.88760071,84.6407439 L2.88760071,87.0980558 L2.14798784,87.0980558 C2.17045272,87.155082 2.1929176,87.2172924 2.21538248,87.2708625 L18.0289277,87.2708625 L18.0289277,84.464481 L1.28222605,84.464481 Z M4.56555421,87.0980558 L3.18310025,87.0980558 L3.18310025,84.6407439 L4.56555421,84.6407439 L4.56555421,87.0980558 Z M6.23659544,87.0980558 L4.85414148,87.0980558 L4.85414148,84.6407439 L6.23659544,84.6407439 L6.23659544,87.0980558 Z M7.9110928,87.0980558 L6.5251827,87.0980558 L6.5251827,84.6407439 L7.90763667,84.6407439 L7.9110928,87.0980558 Z M9.5838621,87.0980558 L8.20140813,87.0980558 L8.20140813,84.6407439 L9.5838621,84.6407439 L9.5838621,87.0980558 Z M11.2583595,87.0980558 L9.8759055,87.0980558 L9.8759055,84.6407439 L11.2583595,84.6407439 L11.2583595,87.0980558 Z M12.9328568,87.0980558 L11.5504029,87.0980558 L11.5504029,84.6407439 L12.9328568,84.6407439 L12.9328568,87.0980558 Z M14.6056261,87.0980558 L13.2231722,87.0980558 L13.2231722,84.6407439 L14.6056261,84.6407439 L14.6056261,87.0980558 Z M16.2783954,87.0980558 L14.8959414,87.0980558 L14.8959414,84.6407439 L16.2783954,84.6407439 L16.2783954,87.0980558 Z M17.9511647,87.0980558 L16.5687107,87.0980558 L16.5687107,84.6407439 L17.9511647,84.6407439 L17.9511647,87.0980558 Z" id="Shape"></path>
                        <path d="M5.1876585,92.6486085 C5.23086018,92.7039066 5.2723338,92.766117 5.31726355,92.8214152 L6.23141124,92.8214152 L6.23141124,94.0016853 C6.32991108,94.1191939 6.42668286,94.2367024 6.52691077,94.3472988 L6.52691077,92.8145029 L7.90936473,92.8145029 L7.90936473,95.2804552 L7.34947088,95.2804552 C7.40476904,95.3374814 7.45833913,95.3979638 7.52227763,95.4532619 L18.0341119,95.4532619 L18.0341119,92.6486085 L5.1876585,92.6486085 Z M9.57867789,95.2804552 L8.19622393,95.2804552 L8.19622393,92.8248713 L9.57867789,92.8248713 L9.57867789,95.2804552 Z M11.2531753,95.2804552 L9.87072129,95.2804552 L9.87072129,92.8248713 L11.2531753,92.8248713 L11.2531753,95.2804552 Z M12.9276726,95.2804552 L11.5452187,95.2804552 L11.5452187,92.8248713 L12.9276726,92.8248713 L12.9276726,95.2804552 Z M14.6004419,95.2804552 L13.217988,95.2804552 L13.217988,92.8248713 L14.6004419,92.8248713 L14.6004419,95.2804552 Z M16.2732112,95.2804552 L14.8907572,95.2804552 L14.8907572,92.8248713 L16.2732112,92.8248713 L16.2732112,95.2804552 Z M17.9459805,95.2804552 L16.5635265,95.2804552 L16.5635265,92.8248713 L17.9459805,92.8248713 L17.9459805,95.2804552 Z" id="Shape"></path>
                        <path d="M14.4138106,100.831008 C14.5710648,100.920867 14.731775,101.003815 14.8942134,101.093674 L14.8942134,101.007271 L16.2766673,101.007271 L16.2766673,101.784901 L16.5704388,101.921418 L16.5704388,101.007271 L17.9528928,101.007271 L17.9528928,102.502049 C17.9794029,102.515232 18.0071981,102.525656 18.03584,102.533154 L18.03584,100.831008 L14.4138106,100.831008 Z" id="Shape"></path>
                        <path d="M128.478359,57.8764352 L128.488727,57.8764352 L128.478359,57.8764352 Z M117.833464,108.878618 L118.00627,108.878618 L117.833464,108.878618 Z M106.727174,82.928229 C106.760007,83.0388253 106.787656,83.1494217 106.818762,83.2582899 C106.791112,83.1494217 106.761735,83.0388253 106.727174,82.928229 Z M128.478359,57.8712509 L128.488727,57.8712509 L128.478359,57.8712509 Z M24.1030848,31.9951689 L24.1030848,32.7330537 L31.8223622,32.7330537 L31.8223622,31.9951689 L24.1030848,31.9951689 Z M117.833464,108.878618 L118.00627,108.878618 L117.833464,108.878618 Z M106.727174,82.928229 C106.760007,83.0388253 106.787656,83.1494217 106.818762,83.2582899 C106.791112,83.1494217 106.761735,83.0388253 106.727174,82.928229 Z M128.478359,57.8712509 L128.488727,57.8712509 L128.478359,57.8712509 Z M117.833464,108.873434 L118.00627,108.873434 L117.833464,108.873434 Z M106.727174,82.928229 C106.760007,83.0388253 106.787656,83.1494217 106.818762,83.2582899 C106.791112,83.1494217 106.761735,83.0388253 106.727174,82.928229 Z" id="Shape"></path>
                    </g>
                    <g id="Doctor_Two-Color" transform="translate(20.236686, 0.000000)">
                        <path d="M24.7337278,22.4852071 C24.7337278,22.4852071 2.71027928,25.5886534 1.12426036,50.3438097 L16.3386765,53.964497 L24.7337278,22.4852071 Z" id="Shape" fill="#68E1FD"></path>
                        <path d="M24.7337278,22.4852071 C24.7337278,22.4852071 2.71027928,25.5886534 1.12426036,50.3438097 L16.3386765,53.964497 L24.7337278,22.4852071 Z" id="Shape" fill="#FFFFFF" opacity="0.46"></path>
                        <rect id="Rectangle-path" fill="#E6E6E6" x="69.704142" y="1.12426036" width="39.3491124" height="48.3431953"></rect>
                        <rect id="Rectangle-path" fill="#FFD200" x="105.680473" y="64.0828402" width="19.112426" height="3.37278107"></rect>
                        <rect id="Rectangle-path" fill="#FFD200" x="107.928994" y="60.7100592" width="19.112426" height="3.37278107"></rect>
                        <rect id="Rectangle-path" fill="#000000" opacity="0.08" x="107.928994" y="60.7100592" width="19.112426" height="3.37278107"></rect>
                        <ellipse id="Oval" fill="#E6E6E6" opacity="0.45" cx="87.6923077" cy="126.47929" rx="80.9467456" ry="9.55621302"></ellipse>
                        <rect id="Rectangle-path" fill="#C9C9C9" x="30.3550296" y="67.4556213" width="116.923077" height="57.3372781"></rect>
                        <rect id="Rectangle-path" fill="#E6E6E6" x="30.3550296" y="67.4556213" width="116.923077" height="7.86982249"></rect>
                        <path d="M88.4412909,68.5838576 C88.4412909,68.5838576 91.633753,84.1815937 79.3959815,89.7291885 C67.15821,95.2767834 66.2270752,109.943855 75.44797,124.792899 L33.7278107,124.792899 L36.2764596,80.8904714 L60.7520026,67.4556213 L82.0350835,67.7155836 L88.4412909,68.5838576 Z" id="Shape" fill="#000000" opacity="0.08"></path>
                        <path d="M1.54836796,51.7159763 C1.54836796,51.7159763 -5.50145745,77.5261777 10.4846146,77.5739645 L15.739645,64.2998433 L13.1040451,54.4345164 L1.54836796,51.7159763 Z" id="Shape" fill="#F4A28C"></path>
                        <path d="M1.54836796,51.7159763 C1.54836796,51.7159763 -5.50145745,77.5261777 10.4846146,77.5739645 L15.739645,64.2998433 L13.1040451,54.4345164 L1.54836796,51.7159763 Z" id="Shape" fill="#CE8172" opacity="0.31"></path>
                        <path d="M30.6766065,123.668639 C30.6766065,123.668639 29.854108,126.112164 27.7686763,126.302714 C25.6832446,126.493264 25.1154554,128.656567 27.020468,129.211404 C28.9254807,129.766241 33.7278107,127.19942 33.7278107,127.19942 L33.5845367,124.021717 L30.6766065,123.668639 Z" id="Shape" fill="#24285B"></path>
                        <path d="M61.5203595,122.544379 C61.5203595,122.544379 62.3434797,124.987838 64.4304878,125.183987 C66.5174959,125.380137 67.0591621,127.532174 65.1792617,128.086996 C63.2993613,128.641818 58.4615385,126.08067 58.4615385,126.08067 L58.6102311,122.897447 L61.5203595,122.544379 Z" id="Shape" fill="#24285B"></path>
                        <path d="M121.552991,61.3218689 C121.552991,61.3218689 115.918144,59.707374 114.674556,54.1200092 C114.674556,54.1200092 123.379673,52.2024521 123.668639,61.8343195 L121.552991,61.3218689 Z" id="Shape" fill="#68E1FD" opacity="0.58"></path>
                        <path d="M123.627546,58.4615385 C123.627546,58.4615385 119.083154,52.6688703 123.035057,47.2189349 C123.035057,47.2189349 130.660392,51.128986 127.318753,58.4615385 L123.627546,58.4615385 Z" id="Shape" fill="#68E1FD" opacity="0.73"></path>
                        <path d="M123.668639,59.5857988 C123.668639,59.5857988 125.869439,52.9904835 132.537862,51.7159763 C132.537862,51.7159763 133.808824,55.990238 128.240801,59.5857988 L123.668639,59.5857988 Z" id="Shape" fill="#68E1FD"></path>
                        <polygon id="Shape" fill="#24285B" points="120.295858 58.4615385 121.564825 66.3313609 129.306638 66.3313609 130.414201 58.4615385"></polygon>
                        <path d="M44.7746703,9.86919297 L43.5015331,8.52550085 C43.2850483,7.08780558 43.0221738,6.00400452 43.0221738,6.00400452 C42.5582777,3.56545216 38.9862775,2.38211835 37.1255385,4.39489174 C36.0382066,5.42724905 35.680235,7.08545432 36.2338271,8.52550085 L37.9038532,11.8432592 C38.6512414,13.8892101 40.3779659,14.4753474 41.676875,14.6080578 C42.1814009,14.6539707 42.6822367,14.4827614 43.068988,14.132168 C43.4557393,13.7815746 43.6966562,13.2803786 43.7386356,12.7390539 C43.7671935,12.2566217 43.7671935,11.7727317 43.7386356,11.2902995 L44.5324134,10.9751124 C44.7429258,10.909272 44.9041061,10.7269673 44.9542695,10.4979679 C45.0044329,10.2689685 44.9358127,10.0287298 44.7746703,9.86919297 Z" id="Shape" fill="#F4A28C"></path>
                        <polygon id="Shape" fill="#F4A28C" points="36.9927167 8.99408284 35.9763314 21.2792836 42.7218935 21.3609467 40.800369 12.6127814"></polygon>
                        <path d="M34.852071,6.71930591 C36.1533648,7.40271292 36.3362776,9.07326341 36.6759728,10.5160116 L37.088833,12.3113109 C38.318901,12.5730645 39.5544425,11.8897777 40.0311158,10.6841514 C40.3302638,10.0038735 40.3912582,9.23656668 40.2035764,8.51460529 C40.1098203,8.18145463 40.1653469,7.82220923 40.3548019,7.53620908 C40.544257,7.25020893 40.8475647,7.06776006 41.1808533,7.03931395 L41.755722,6.97965144 C42.5007774,6.88452757 43.215434,6.61566007 43.8461538,6.19319098 L43.6423367,3.37278107" id="Shape" fill="#24285B"></path>
                        <path d="M40.4733728,8.99775768 C40.4733728,8.99775768 40.1630069,7.62761441 38.9275117,7.90753615 C37.6920166,8.1874579 38.1336912,10.1665537 39.8765152,10.1174447 L40.4733728,8.99775768 Z" id="Shape" fill="#F4A28C"></path>
                        <path d="M40.9240471,12.6174134 C39.9304677,12.4200549 39.0074763,11.9447307 38.2544218,11.2426036 C38.2544218,11.2426036 37.6797108,14.5896872 41.5976331,15.739645 L40.9240471,12.6174134 Z" id="Shape" fill="#CE8172" opacity="0.31"></path>
                        <path d="M25.1152582,22.0934092 C25.1152582,22.0934092 43.482941,16.6915379 62.2013954,24.3155663 C80.9198499,31.9395948 52.480767,80.9467456 52.480767,80.9467456 L23.8025216,80.9467456 C23.8025216,80.9467456 -2.78172288,27.6097711 25.1152582,22.0934092 Z" id="Shape" fill="#68E1FD"></path>
                        <circle id="Oval" fill="#C9C9C9" cx="80.3846154" cy="10.6804734" r="2.81065089"></circle>
                        <path d="M83.8670225,15.1671373 C83.5607833,13.3521548 79.4742468,13.4901359 79.2583732,13.4954429 C79.0424997,13.5007499 74.9609835,13.3521548 74.6547443,15.1671373 C74.3987082,16.6796226 73.4448483,22.7614059 73.0934263,25.0115595 C73.0030837,25.4938269 73.2924599,25.9644409 73.7460672,26.0729528 C73.9697796,26.1267967 74.2045657,26.0843098 74.3985975,25.9548711 C74.5926293,25.8254323 74.729952,25.6196851 74.7802521,25.3830472 L76.4720983,17.3854491 L76.7883782,26.2746175 L76.4971999,39.4040518 C76.4935111,39.9439037 76.8737586,40.4006752 77.3807754,40.465445 C77.6554028,40.5011165 77.9317832,40.4154065 78.1446558,40.2285536 C78.3575284,40.0417006 78.4880229,39.7702684 78.505326,39.4783493 L79.0374794,30.4565068 C79.0374794,30.3275447 79.1363769,30.2230003 79.2583732,30.2230003 C79.3803695,30.2230003 79.4792671,30.3275447 79.4792671,30.4565068 L80.0164408,39.4783493 C80.0337439,39.7702684 80.1642383,40.0417006 80.3771109,40.2285536 C80.5899835,40.4154065 80.8663639,40.5011165 81.1409914,40.465445 C81.6480081,40.4006752 82.0282557,39.9439037 82.0245669,39.4040518 L81.7333886,26.2746175 L82.0546887,17.3589143 L83.7364943,25.3618193 C83.7867945,25.5984572 83.9241171,25.8042044 84.1181489,25.9336432 C84.3121807,26.063082 84.5469668,26.1055688 84.7706792,26.0517249 C85.2247002,25.9431497 85.5155914,25.4736831 85.4283405,24.9903317 C85.0668778,22.7614059 84.1180383,16.6796226 83.8670225,15.1671373 Z" id="Shape" fill="#C9C9C9"></path>
                        <path d="M41.8315397,8.98878472 L44.9704142,8.98878472 L43.6424288,14.6153846 L38.2248521,10.8007406 L38.2248521,10.2984792 L39.9049548,11.4237991 C40.1072289,11.5625242 40.352705,11.5542526 40.5488434,11.4021025 C40.7449818,11.2499524 40.861957,10.9770603 40.8556716,10.6863013 C40.8275618,9.90190931 40.4602675,9.20068677 39.8999245,8.86162992 L39.3968998,8.54374292 L38.974359,7.86982249 L40.0357412,8.50559648 C40.6008576,8.82424 41.2127373,8.98887601 41.8315397,8.98878472 Z" id="Shape" fill="#68E1FD"></path>
                        <path d="M29.180101,33.7278107 L35.9156251,33.7278107 L39.1282756,53.4019276 L30.4104778,53.4019276 C30.4104778,53.4019276 26.7719277,69.6019708 39.3491124,80.9467456 L24.516237,80.9467456 C24.516237,80.9467456 16.7553989,62.0370303 15.2989273,55.2944806 L14.6153846,40.6865015 L29.180101,33.7278107 Z" id="Shape" fill="#000000" opacity="0.08"></path>
                        <path d="M35.9763314,20.6695826 L39.4591236,26.9822485 L42.7218935,20.5117659 C40.4871512,20.0978043 38.1883836,20.1515854 35.9763314,20.6695826 Z" id="Shape" fill="#F4A28C"></path>
                        <polygon id="Shape" fill="#FFD200" points="11.2426036 30.3550296 27.8948579 30.3550296 30.3550296 49.4674556 13.9398368 49.4674556"></polygon>
                        <path d="M16.9495109,40.4733728 C18.8199411,40.8101984 20.3245247,42.1711364 20.813935,43.9688523 C21.7940795,47.1497387 29.9619508,45.3121152 29.9619508,45.3121152 L30.3550296,48.3431953 L15.739645,48.2982534 L16.9495109,40.4733728 Z" id="Shape" fill="#000000" opacity="0.08"></path>
                        <polygon id="Shape" fill="#24285B" points="15.739645 29.2307692 16.4677704 32.6035503 22.4852071 32.6035503 21.9339121 29.2307692"></polygon>
                        <path d="M13.2582426,47.3485808 C13.2582426,47.3485808 10.5878166,42.5069258 14.4911722,40.7628888 C18.3945277,39.0188518 19.240439,45.5628952 15.9563127,49.4674556 L13.2582426,47.3485808 Z" id="Shape" fill="#24285B"></path>
                        <path d="M36.4990399,8.99390984 C36.4990399,8.99390984 38.8821904,6.18945787 44.2043765,5.50234168 C44.2043765,5.50234168 46.2738097,2.73351795 43.6099648,0.784143888 C40.9461199,-1.16523017 34.6167363,0.814682385 33.1527223,3.49698038 C32.3326544,5.00354623 31.7767694,9.02444834 36.4990399,8.99390984 Z" id="Shape" fill="#68E1FD"></path>
                        <path d="M13.3753807,46.0946746 C13.3753807,46.0946746 -0.722889019,74.2623722 9.10070258,77.3608189 C18.9242942,80.4592656 16.6317598,48.7520045 16.6317598,48.7520045 L13.3753807,46.0946746 Z" id="Shape" fill="#F4A28C"></path>
                        <path d="M53.4813356,30.7698213 C56.0274392,25.5418417 62.9896061,24.2609867 67.469058,28.025132 C73.7550813,33.3367592 85.3340418,48.0796617 87.4469908,62.1690666 C90.796015,84.4768555 58.747861,86.5680473 58.747861,86.5680473 L57.6913865,81.6903424 C57.6913865,81.6903424 78.7152291,76.4623628 72.6933244,61.82402 C67.8758007,50.1133457 49.1656373,39.6260187 53.4813356,30.7698213 Z" id="Shape" fill="#F4A28C"></path>
                        <path d="M69.704142,29.2307692 C69.704142,29.2307692 87.4170995,33.9615785 91.0650888,50.591716 L81.9169755,50.591716 L69.704142,29.2307692 Z" id="Shape" fill="#000000" opacity="0.08"></path>
                        <path d="M53.9980111,28.7560803 C53.9980111,28.7560803 59.6097844,21.9737833 66.7394089,26.0230736 C73.8690334,30.072364 83.1952663,44.9691005 83.1952663,44.9691005 L67.4502335,56.2130178 C67.4502335,56.2130178 44.5595427,36.8599473 53.9980111,28.7560803 Z" id="Shape" fill="#68E1FD"></path>
                        <path d="M53.9980111,28.7560803 C53.9980111,28.7560803 59.6097844,21.9737833 66.7394089,26.0230736 C73.8690334,30.072364 83.1952663,44.9691005 83.1952663,44.9691005 L67.4502335,56.2130178 C67.4502335,56.2130178 44.5595427,36.8599473 53.9980111,28.7560803 Z" id="Shape" fill="#FFFFFF" opacity="0.46"></path>
                        <polygon id="Shape" fill="#68E1FD" points="52.6471613 80.9467456 24.7337278 80.9467456 29.3971811 122.544379 34.6610346 122.544379 39.2986085 88.8456925 56.6584557 122.544379 61.8343195 122.544379"></polygon>
                        <polygon id="Shape" fill="#000000" opacity="0.08" points="52.6471613 80.9467456 24.7337278 80.9467456 29.3971811 122.544379 34.6610346 122.544379 39.2986085 88.8456925 56.6584557 122.544379 61.8343195 122.544379"></polygon>
                        <rect id="Rectangle-path" fill="#C9C9C9" x="88.816568" y="6.74556213" width="13.4911243" height="11.2426036"></rect>
                        <rect id="Rectangle-path" fill="#FFFFFF" x="88.816568" y="22.4852071" width="13.4911243" height="2.24852071"></rect>
                        <rect id="Rectangle-path" fill="#FFFFFF" opacity="0.5" x="88.816568" y="26.9822485" width="13.4911243" height="2.24852071"></rect>
                        <rect id="Rectangle-path" fill="#FFFFFF" opacity="0.5" x="88.816568" y="31.4792899" width="13.4911243" height="2.24852071"></rect>
                        <circle id="Oval" fill="#24285B" cx="102.307692" cy="43.8461538" r="3.37278107"></circle>
                        <path d="M57.4400053,80.9467456 C57.4400053,80.9467456 48.4147598,82.8892164 51.086069,86.3403068 C53.7573782,89.7913972 58.4615385,85.546556 58.4615385,85.546556 L57.4400053,80.9467456 Z" id="Shape" fill="#24285B"></path>
                        <path d="M32.746113,29.2307692 C32.6901268,28.9101558 31.5019762,21.345852 37.1005917,19.112426 L37.1005917,19.8079942 C31.9623068,21.8675281 33.3681814,29.0460089 33.3681814,29.1438232 L32.746113,29.2307692 Z" id="Shape" fill="#24285B"></path>
                        <path d="M46.2358758,34.852071 L45.5992848,34.7449986 C48.9222898,21.7892364 42.7855526,19.6936763 42.7218935,19.6732815 L42.7218935,19.112426 C43.0147254,19.194005 49.6734672,21.4629205 46.2358758,34.852071 Z" id="Shape" fill="#24285B"></path>
                        <path d="M48.0317346,43.8461538 L47.0463419,43.5906342 C47.0463419,43.5533709 47.885189,39.8643064 46.6269184,38.0330824 C46.2097005,37.4357951 45.5519962,37.0775603 44.8481583,37.0642372 C44.1458015,36.9721689 43.4412207,37.2163239 42.927906,37.7296529 C41.3411711,39.3266505 41.4877167,43.1700915 41.4877167,43.2073548 L40.4770576,43.2552647 C40.4770576,43.079595 40.3102988,38.9274011 42.2204446,36.9684173 C42.9478476,36.2337752 43.948089,35.8786424 44.9492242,35.9995721 C45.9514632,36.0350474 46.8828146,36.5530785 47.4758721,37.40493 C48.9918608,39.6247567 48.0671076,43.6704841 48.0317346,43.8461538 Z" id="Shape" fill="#24285B"></path>
                        <circle id="Oval" fill="#FFD200" cx="46.0946746" cy="35.9763314" r="1.12426036"></circle>
                        <circle id="Oval" fill="#FFD200" cx="33.7278107" cy="31.4792899" r="2.24852071"></circle>
                        <circle id="Oval" fill="#000000" opacity="0.08" cx="33.7278107" cy="31.4792899" r="1.12426036"></circle>
                        <path d="M42.4942391,49.4674556 C40.1344066,48.2981513 40.484217,42.9480325 40.5008747,42.7218935 L41.0561294,42.7605026 C41.0561294,42.8156585 40.7118715,47.9672161 42.7218935,48.9765684 L42.4942391,49.4674556 Z" id="Shape" fill="#24285B"></path>
                        <circle id="Oval" fill="#FFD200" cx="43.8461538" cy="48.3431953" r="1.12426036"></circle>
                        <path d="M45.1624587,49.4674556 L44.9704142,48.9241113 C47.2989534,48.1784579 47.7370549,42.7796961 47.7430563,42.7218935 L48.3431953,42.7681356 C48.3191897,42.9993459 47.8690855,48.606197 45.1624587,49.4674556 Z" id="Shape" fill="#24285B"></path>
                        <circle id="Oval" fill="#FFD200" cx="46.0946746" cy="48.3431953" r="1.12426036"></circle>
                    </g>
                </g>
            </g>
        </g>
    </g>
</svg>